 <svg  version="1.0" xmlns="http://www.w3.org/2000/svg"  width="253.000000pt" height="195.000000pt" viewBox="0 0 253.000000 195.000000"  preserveAspectRatio="xMidYMid meet">  <g transform="translate(0.000000,195.000000) scale(0.100000,-0.100000)" fill="#15f5ba" stroke="none"> <path d="M1012 1938 c-15 -15 -16 -48 -2 -48 6 0 10 -19 10 -42 l0 -43 -68 3 c-61 3 -69 1 -91 -22 -21 -22 -24 -35 -23 -96 l1 -71 -70 2 c-72 2 -86 -2 -74 -21 5 -8 31 -10 74 -8 l66 3 0 -99 0 -99 -69 -1 c-46 -1 -71 -5 -73 -13 -4 -10 15 -13 71 -13 l76 0 0 -100 0 -100 -35 0 c-19 0 -44 6 -55 12 -24 16 -55 0 -55 -27 0 -27 31 -43 55 -27 11 6 36 12 55 12 l35 0 -2 -70 c-2 -97 11 -110 109 -110 l73 0 0 -39 c0 -22 -5 -43 -10 -46 -33 -20 9 -73 43 -54 19 11 23 44 7 54 -5 3 -10 24 -10 46 l0 39 100 0 100 0 0 -76 c0 -56 3 -75 13 -71 8 2 12 27 12 73 l1 69 99 0 99 0 1 -69 c0 -46 4 -71 13 -73 9 -4 12 15 12 71 l0 76 74 0 c69 0 76 2 95 26 16 21 21 41 21 90 l0 64 70 0 c56 0 70 3 70 15 0 12 -14 15 -70 15 l-70 0 0 100 0 100 71 0 c52 0 70 3 66 13 -2 8 -26 12 -70 12 l-67 0 0 102 0 102 33 -1 c17 0 40 -8 50 -16 22 -20 50 -6 55 26 4 29 -29 46 -54 27 -11 -8 -34 -15 -51 -15 l-33 0 0 70 c0 62 -3 74 -25 95 -21 22 -33 25 -95 25 l-70 0 0 71 c0 52 -3 70 -12 66 -9 -3 -13 -26 -12 -70 l1 -67 -94 0 c-51 0 -96 -1 -100 -2 -4 -2 -7 28 -8 66 0 46 -4 71 -12 73 -10 4 -13 -14 -13 -66 l0 -71 -100 0 -100 0 0 35 c0 19 5 44 12 54 21 34 -22 67 -50 39z m636 -170 c9 -9 12 -108 12 -385 l0 -373 -22 -13 c-33 -19 -739 -17 -762 2 -14 12 -16 58 -16 382 0 319 2 370 16 383 13 14 65 16 388 16 276 0 375 -3 384 -12z"/> <path d="M1190 1693 c-26 -10 -50 -36 -50 -55 0 -14 -8 -18 -35 -18 -49 0 -96 -43 -97 -90 -1 -23 -9 -43 -24 -57 -27 -25 -31 -60 -10 -88 12 -17 12 -22 -5 -44 -31 -39 -25 -87 16 -128 19 -19 35 -45 35 -57 0 -32 38 -63 85 -69 22 -3 55 -9 73 -13 22 -4 40 -1 57 10 23 15 27 15 50 0 17 -11 35 -14 57 -10 18 4 55 10 82 15 60 10 83 37 77 89 -1 6 3 12 9 12 6 0 22 12 35 26 32 34 35 104 6 133 -17 17 -18 21 -5 32 24 19 18 76 -10 95 -14 8 -22 22 -19 29 8 23 -16 82 -42 99 -13 9 -40 16 -59 16 -28 0 -35 4 -38 21 -2 12 -15 31 -30 42 -24 18 -28 18 -58 3 -29 -14 -35 -14 -53 -1 -23 16 -24 16 -47 8z m44 -39 c14 -13 16 -47 16 -214 l0 -198 -30 11 c-25 10 -34 8 -57 -9 -16 -12 -29 -33 -31 -47 -4 -35 13 -35 30 1 25 51 88 32 88 -26 0 -59 -67 -97 -100 -57 -9 11 -17 12 -32 4 -32 -17 -68 13 -68 56 0 20 -5 35 -12 35 -6 0 -22 10 -35 22 -34 32 -31 79 8 113 17 14 30 27 28 29 -2 2 -14 9 -26 15 -33 17 -31 59 2 71 23 9 25 14 20 43 -9 47 28 91 74 89 18 0 38 -6 46 -12 18 -15 29 4 16 28 -7 14 -6 25 5 40 18 26 37 28 58 6z m110 0 c19 -18 20 -36 5 -51 -21 -21 0 -33 34 -19 59 25 114 -18 103 -79 -6 -31 -4 -36 17 -44 37 -14 41 -39 10 -67 l-28 -25 22 -17 c53 -43 50 -108 -8 -134 -19 -9 -28 -20 -27 -33 3 -39 -2 -52 -26 -64 -17 -10 -29 -10 -44 -2 -15 8 -23 7 -32 -4 -16 -19 -64 -19 -80 0 -8 9 -12 64 -13 165 l-2 150 31 -6 c35 -6 81 26 86 61 4 28 -20 25 -35 -5 -14 -29 -41 -37 -62 -20 -19 16 -21 180 -3 198 16 16 33 15 52 -4z"/> <path d="M1130 1517 c0 -7 5 -18 10 -23 13 -13 3 -41 -17 -49 -9 -3 -21 -1 -27 5 -15 15 -36 12 -36 -4 0 -14 8 -18 63 -30 15 -4 27 -13 27 -21 0 -17 17 -28 30 -20 6 4 5 16 -5 34 -7 15 -11 38 -8 49 8 31 -5 72 -22 72 -8 0 -15 -6 -15 -13z"/> <path d="M1323 1305 c-13 -10 -15 -17 -7 -25 8 -8 14 -9 18 -1 4 6 16 11 26 11 24 0 42 -31 29 -51 -13 -20 -11 -29 5 -29 16 0 26 21 26 56 0 25 18 32 37 13 8 -8 13 -7 18 1 13 21 -13 33 -74 36 -38 1 -66 -3 -78 -11z"/> <path d="M338 764 c-34 -18 -48 -43 -48 -86 0 -61 34 -92 122 -108 62 -12 88 -33 88 -72 0 -67 -98 -94 -158 -43 -18 15 -37 23 -46 19 -28 -11 -18 -32 27 -59 51 -29 122 -33 168 -9 57 29 75 127 31 167 -9 9 -40 21 -67 28 -83 20 -106 31 -116 56 -13 34 -12 40 11 63 27 27 98 27 133 0 26 -21 57 -18 57 5 0 7 -15 23 -34 34 -40 25 -127 28 -168 5z"/> <path d="M684 761 c-45 -27 -59 -71 -59 -181 0 -72 5 -103 18 -127 37 -69 132 -85 192 -32 19 17 35 37 35 44 0 20 -32 28 -42 11 -25 -45 -83 -61 -121 -33 -28 20 -46 86 -43 159 4 82 29 131 70 136 44 5 76 -6 87 -32 8 -16 17 -22 30 -19 28 8 23 27 -16 62 -43 37 -102 42 -151 12z"/> <path d="M960 584 c0 -187 1 -194 20 -194 18 0 20 7 20 85 l0 85 33 0 c30 0 35 -6 77 -81 45 -82 56 -93 84 -87 11 2 3 22 -34 83 l-49 80 29 12 c16 7 36 23 44 35 18 26 21 100 5 130 -17 32 -72 49 -154 47 l-75 -1 0 -194z m186 131 c19 -26 17 -69 -3 -93 -13 -15 -35 -21 -80 -25 l-63 -5 0 75 0 75 66 -4 c50 -3 70 -9 80 -23z"/> <path d="M1280 760 c0 -17 7 -20 50 -20 l50 0 0 -155 0 -155 -50 0 c-41 0 -50 -3 -50 -18 0 -16 11 -18 120 -18 109 0 120 2 120 18 0 15 -9 18 -50 18 l-50 0 0 155 0 155 50 0 c43 0 50 3 50 20 0 19 -7 20 -120 20 -113 0 -120 -1 -120 -20z"/> <path d="M1610 586 l0 -196 26 0 26 0 -4 85 -3 85 72 0 c62 0 76 3 100 24 24 21 28 31 28 80 0 47 -4 60 -28 83 -25 26 -34 28 -122 31 l-95 4 0 -196z m178 138 c17 -12 22 -25 22 -58 0 -24 -6 -48 -13 -54 -6 -6 -41 -12 -76 -13 l-63 -3 -1 72 -2 72 55 0 c34 0 64 -6 78 -16z"/> <path d="M1902 759 c3 -20 10 -22 66 -23 l64 -1 -2 -172 -1 -173 26 0 25 0 0 176 0 175 63 -2 c57 -3 62 -1 65 19 3 22 2 22 -153 22 -154 0 -156 0 -153 -21z"/> </g> </svg> 