 <svg  version="1.0" xmlns="http://www.w3.org/2000/svg"  width="300.000000pt" height="300.000000pt" viewBox="0 0 300.000000 300.000000"  preserveAspectRatio="xMidYMid meet">  <g transform="translate(0.000000,300.000000) scale(0.100000,-0.100000)" fill="#15f5ba" stroke="none"> <path d="M22 2938 c-7 -7 -12 -21 -12 -31 0 -17 2 -18 16 -6 14 11 241 14 1302 16 828 2 1299 -1 1323 -7 31 -9 38 -15 42 -43 4 -17 6 -455 7 -972 1 -1084 -13 -967 115 -1004 58 -17 75 -26 75 -40 0 -10 -38 -55 -84 -101 -47 -46 -87 -94 -91 -107 -7 -30 -1 -40 128 -172 59 -61 107 -117 107 -124 0 -21 -223 -237 -245 -237 -12 0 -62 42 -125 106 -118 118 -145 138 -175 122 -11 -6 -59 -49 -107 -96 -50 -49 -92 -83 -100 -80 -13 5 -36 69 -79 218 -11 41 -30 102 -40 134 -10 33 -19 66 -19 73 0 8 -12 27 -27 42 l-28 27 -984 2 c-708 2 -988 5 -998 13 -10 9 -13 7 -13 -8 0 -10 5 -24 12 -31 9 -9 246 -12 1005 -12 788 0 993 -3 993 -12 0 -24 132 -453 146 -476 8 -12 22 -22 31 -22 9 0 64 47 122 105 l107 105 129 -130 c81 -81 137 -130 150 -130 31 0 285 258 285 290 0 18 -33 58 -127 152 l-128 128 104 104 c80 80 102 108 99 126 -4 29 -13 34 -120 65 l-88 26 0 983 c0 940 -1 984 -18 999 -17 16 -125 17 -1348 17 -1021 0 -1333 -3 -1342 -12z"/> <path d="M87 2863 c-13 -12 -8 -328 5 -341 17 -17 2529 -17 2546 0 17 17 17 319 0 336 -9 9 -307 12 -1278 12 -697 0 -1270 -3 -1273 -7z m2548 -173 l0 -160 -1270 0 -1270 0 0 160 0 160 1270 0 1270 0 0 -160z"/> <path d="M256 2724 c-9 -8 -16 -21 -16 -27 0 -22 31 -57 49 -57 22 0 51 30 51 53 0 21 -27 47 -50 47 -10 0 -26 -7 -34 -16z"/> <path d="M459 2719 c-18 -34 3 -69 41 -69 22 0 33 6 41 24 16 35 -3 66 -41 66 -20 0 -33 -7 -41 -21z"/> <path d="M672 2728 c-16 -16 -15 -53 2 -67 8 -7 27 -11 42 -9 53 6 50 88 -4 88 -15 0 -33 -5 -40 -12z"/> <path d="M283 2470 c-158 -4 -185 -7 -200 -23 -17 -17 -18 -64 -17 -835 0 -757 4 -885 26 -908 7 -7 1878 -5 1890 2 15 10 -1 138 -27 224 -69 219 -71 230 -41 230 7 0 53 -13 102 -29 49 -15 116 -36 149 -45 97 -28 159 -49 169 -58 6 -4 21 -8 34 -8 25 0 120 -28 137 -40 6 -4 39 -7 75 -6 l65 1 0 733 0 734 -39 13 c-45 16 -115 17 -1326 19 -448 0 -897 -1 -997 -4z m2352 -760 c0 -644 -2 -729 -15 -725 -238 75 -714 215 -729 215 -13 0 -26 -10 -32 -23 -8 -19 2 -63 55 -238 36 -118 66 -217 66 -219 0 -3 -424 -4 -942 -2 l-943 2 2 858 c2 471 3 858 3 860 0 1 570 2 1268 2 l1267 0 0 -730z"/> <path d="M2577 2414 c-9 -9 -9 -1356 -1 -1379 5 -13 8 -14 15 -3 10 16 11 1345 0 1371 -3 10 -10 15 -14 11z"/> <path d="M378 1859 c-10 -5 -18 -20 -18 -32 0 -12 32 -118 72 -234 74 -219 82 -233 127 -218 15 4 32 42 69 153 l49 147 42 -130 c24 -71 50 -140 57 -152 18 -28 59 -30 73 -4 22 39 141 406 141 432 0 34 -23 53 -54 45 -22 -5 -31 -24 -73 -151 -43 -131 -63 -172 -63 -130 0 9 -18 72 -41 140 -41 128 -59 153 -98 140 -17 -5 -66 -126 -102 -252 -7 -24 -15 -43 -18 -43 -3 0 -26 64 -51 141 -49 155 -65 176 -112 148z m60 -96 c11 -32 28 -82 38 -112 9 -30 28 -66 41 -79 l24 -24 25 23 c16 15 37 61 60 135 26 83 39 111 51 110 9 -2 27 -37 47 -97 76 -219 106 -218 181 9 29 86 49 117 40 60 -8 -58 -119 -368 -131 -368 -12 0 -35 53 -73 164 -22 62 -45 96 -67 96 -21 0 -41 -37 -79 -145 -37 -106 -44 -118 -62 -107 -11 7 -83 208 -87 242 -1 9 -5 21 -9 27 -8 13 -37 103 -37 116 0 4 4 7 9 7 5 0 18 -26 29 -57z"/> <path d="M1068 1859 c-10 -5 -18 -20 -18 -32 0 -12 32 -117 71 -234 73 -221 81 -233 129 -218 15 5 30 40 66 151 26 79 48 143 50 142 1 -2 23 -67 48 -145 36 -108 51 -143 66 -148 48 -15 56 -3 129 218 39 117 71 222 71 235 0 14 -9 26 -24 33 -44 21 -59 1 -106 -150 -25 -77 -47 -141 -50 -141 -3 0 -25 64 -50 141 -34 110 -49 144 -66 151 -42 19 -57 -2 -104 -151 -25 -77 -47 -141 -50 -141 -3 0 -24 61 -48 135 -51 160 -67 182 -114 154z m78 -160 c21 -62 45 -114 59 -129 l25 -24 21 20 c11 12 37 68 56 125 20 57 40 110 46 117 17 22 33 -4 67 -110 21 -64 42 -111 58 -127 l25 -25 27 32 c15 18 32 49 38 70 35 114 44 138 52 152 28 45 9 -52 -30 -155 -4 -11 -23 -66 -41 -123 -25 -75 -38 -102 -49 -100 -9 2 -29 44 -52 112 -67 196 -98 196 -165 0 -25 -71 -43 -109 -53 -109 -12 0 -43 66 -55 117 -2 9 -9 27 -16 40 -7 13 -12 25 -11 28 1 3 -12 48 -28 101 -33 105 -35 118 -20 103 6 -6 27 -58 46 -115z"/> <path d="M1762 1863 c-36 -14 -32 -39 38 -246 37 -113 73 -215 80 -226 15 -28 56 -27 74 2 7 12 33 81 57 152 l42 130 50 -148 c43 -130 52 -148 74 -153 16 -4 30 -1 39 8 9 8 47 108 86 222 72 213 78 248 38 261 -40 13 -55 -10 -100 -154 -25 -77 -47 -141 -50 -141 -3 0 -25 61 -49 135 -49 148 -66 175 -105 157 -20 -9 -32 -34 -65 -136 -23 -69 -41 -132 -41 -141 0 -42 -20 -1 -63 129 -50 150 -61 167 -105 149z m73 -163 c20 -58 47 -116 60 -129 l23 -24 26 28 c15 16 38 67 56 124 39 121 46 132 64 108 14 -18 72 -186 69 -198 -1 -3 11 -18 26 -33 l29 -27 24 23 c15 14 38 62 59 127 19 58 40 106 46 108 14 5 3 -46 -27 -122 -4 -11 -17 -51 -30 -90 -12 -38 -24 -77 -27 -85 -4 -8 -7 -19 -9 -25 -8 -33 -25 -65 -34 -65 -12 0 -33 46 -61 134 -36 115 -76 154 -109 104 -16 -26 -49 -111 -56 -148 -3 -14 -9 -29 -15 -35 -5 -5 -9 -17 -9 -26 0 -24 -18 -33 -34 -20 -11 10 -20 37 -27 79 0 4 -4 12 -9 17 -6 8 -28 73 -55 165 -1 3 -7 19 -14 35 -7 17 -15 46 -18 65 -9 60 12 22 52 -90z"/> <path d="M112 788 c4 -10 193 -14 894 -16 489 -1 899 0 912 3 88 21 -41 25 -894 25 -728 0 -915 -3 -912 -12z"/> <path d="M1957 1084 c-12 -16 -16 -32 -11 -47 4 -12 6 -22 5 -22 -1 0 10 -34 24 -75 14 -41 26 -85 27 -97 2 -13 5 -23 9 -23 4 0 9 -10 12 -22 14 -57 67 -241 91 -313 15 -44 28 -87 29 -95 2 -9 12 -29 24 -45 11 -17 24 -45 28 -63 10 -48 44 -47 92 4 18 19 35 34 38 34 3 0 23 18 45 40 22 22 44 40 49 40 5 0 45 -35 88 -78 112 -109 177 -161 190 -149 2 3 -67 78 -154 166 -121 123 -164 161 -183 161 -18 0 -45 -19 -89 -64 -84 -85 -75 -108 11 -28 36 34 71 62 77 62 6 0 22 -7 35 -15 23 -15 23 -15 -73 -110 -78 -77 -97 -91 -103 -77 -14 34 -246 807 -243 810 1 2 182 -51 401 -117 219 -67 404 -121 411 -121 7 0 13 -3 13 -7 0 -4 -42 -50 -94 -102 l-94 -96 -11 31 c-6 17 -11 34 -11 37 0 4 25 34 55 67 56 61 71 89 37 71 -24 -13 -132 -127 -132 -140 0 -15 140 -169 245 -270 l87 -83 -88 -89 c-97 -97 -103 -122 -8 -34 32 30 62 55 67 55 4 0 7 7 7 16 0 8 5 12 10 9 6 -4 10 -3 9 2 -1 4 1 16 5 25 11 25 -49 111 -142 203 -45 44 -82 88 -82 98 0 10 27 46 61 81 104 109 109 125 42 146 -21 7 -45 19 -55 27 -9 8 -63 28 -120 44 -56 17 -107 34 -112 40 -6 5 -22 9 -36 9 -15 0 -53 11 -86 24 -32 13 -72 27 -89 30 -16 3 -68 17 -115 31 -95 30 -150 45 -165 44 -5 0 -18 -11 -28 -25z"/> <path d="M2720 325 c-56 -57 -70 -75 -54 -75 20 0 144 121 144 140 0 21 -18 8 -90 -65z"/> </g> </svg> 